<?xml version="1.0" encoding="utf-8"?>
<!-- Generator: Adobe Illustrator 22.0.1, SVG Export Plug-In . SVG Version: 6.00 Build 0)  -->
<svg version="1.1" id="Layer_1" xmlns="http://www.w3.org/2000/svg" xmlns:xlink="http://www.w3.org/1999/xlink" x="0px" y="0px"
	 viewBox="0 0 200 200" style="enable-background:new 0 0 200 200;" xml:space="preserve">
<style type="text/css">
	.st0{fill:#FEFEFE;}
	.st1{fill:#6FCF97;}
	.st2{fill:#2C513B;}
</style>
<g>
	<path class="st0" d="M-20.6,30.2c-0.1,0.1-0.2,0.2-0.3,0.3C-20.8,30.4-20.7,30.3-20.6,30.2z"/>
	<path class="st0" d="M-20.9,174.7c0.1,0.1,0.2,0.2,0.3,0.3C-20.7,174.9-20.8,174.8-20.9,174.7z"/>
	<path class="st0" d="M229.1,175c0.1-0.1,0.2-0.2,0.3-0.3C229.3,174.8,229.2,174.9,229.1,175z"/>
	<path class="st1" d="M104.3,162.4c-0.1-0.6-0.3-1.3-0.4-1.9c-3.2-15.2-8.8-29.5-17.6-42.4c-3.4-4.9-7.5-9.3-11.3-14
		c-4.8-5.9-7.8-12.7-8.3-20.4c-1.1-16.1,5.3-28.6,19.2-36.6c12.3-7.1,25.2-6.9,37.5,0.2c13.2,7.7,19.5,19.7,18.9,34.9
		c-0.3,9.6-4.4,17.9-11.1,24.9c-7,7.2-12.3,15.7-16.6,24.7c-4,8.4-7,17.2-9.2,26.2c-0.3,1.4-0.6,2.8-0.9,4.2
		C104.5,162.4,104.4,162.4,104.3,162.4z M104.3,100.3c10,0.3,20.2-7.8,20.3-19.9c0.1-11.7-8.8-20.4-20.3-20.4
		c-11.5,0-20,9.3-20.1,20.1C84.1,91.2,93.6,100.6,104.3,100.3z"/>
	<path class="st2" d="M104.3,100.3c-10.8,0.3-20.2-9.1-20.1-20.2C84.3,69.3,92.8,60,104.3,60c11.4,0,20.3,8.7,20.3,20.4
		C124.5,92.6,114.4,100.7,104.3,100.3z"/>
</g>
</svg>
